<?xml version="1.0" standalone="no"?>
<!DOCTYPE svg PUBLIC "-//W3C//DTD SVG 20010904//EN"
 "http://www.w3.org/TR/2001/REC-SVG-20010904/DTD/svg10.dtd">
<svg version="1.0" xmlns="http://www.w3.org/2000/svg"
 width="1000.000000pt" height="1000.000000pt" viewBox="0 0 1000.000000 1000.000000"
 preserveAspectRatio="xMidYMid meet">

<g transform="translate(0.000000,1000.000000) scale(0.100000,-0.100000)"
fill="#000000" stroke="none">
<path d="M1448 5628 l-3 -3443 -22 -77 c-47 -164 -124 -263 -257 -328 -103
-51 -201 -70 -367 -70 l-129 0 0 -491 0 -492 218 6 c352 9 586 59 815 173 124
62 198 114 301 214 212 204 334 472 393 862 15 101 17 252 20 1416 l4 1303
982 -3 982 -4 75 -23 c105 -32 166 -67 232 -133 62 -62 107 -145 135 -249 16
-59 18 -187 20 -1811 l3 -1748 486 0 485 0 -4 1773 c-3 1958 1 1839 -67 2080
-141 504 -513 876 -1010 1011 -208 57 -244 59 -924 63 l-630 4 1355 1355 1354
1354 -350 350 -351 350 -1384 -1392 -1385 -1393 -3 1392 -2 1393 -485 0 -485
0 -2 -3442z"/>
<path d="M7600 5598 c0 -2262 4 -3504 10 -3563 45 -400 187 -722 412 -930 270
-249 659 -375 1164 -375 l144 0 0 489 0 488 -157 5 c-135 5 -170 9 -240 32
-186 60 -293 176 -344 374 -19 74 -19 147 -19 3514 l0 3438 -485 0 -485 0 0
-3472z"/>
<path d="M6070 7304 c-213 -56 -389 -233 -445 -449 -19 -76 -19 -223 0 -300
52 -204 223 -388 419 -451 64 -21 102 -26 181 -27 182 -1 317 54 445 183 128
127 183 261 183 445 0 181 -56 319 -177 440 -123 122 -262 176 -450 174 -56 0
-126 -7 -156 -15z"/>
</g>
</svg>
